<svg xmlns="http://www.w3.org/2000/svg"  viewBox="0 0 24 24" width="50px" height="50px"><path d="M 11.59375 2.9726562 C 7.385875 2.9897656 3.8713437 4.4383594 1.7773438 7.1308594 C -0.15765625 9.6188594 -0.5425625 12.833438 0.7734375 15.523438 C 2.4764375 19.003438 6.568 21 12 21 C 14.939 21 17.452703 20.411 19.470703 19.25 C 19.829703 19.043 19.953094 18.585563 19.746094 18.226562 C 19.539094 17.866562 19.080656 17.743219 18.722656 17.949219 C 16.935656 18.978219 14.673 19.5 12 19.5 C 7.163 19.5 3.5620937 17.810281 2.1210938 14.863281 C 1.0590937 12.692281 1.3809375 10.081781 2.9609375 8.0507812 C 4.8120756 5.6705261 8.0158893 4.4282279 11.886719 4.4785156 C 10.207786 6.7299626 7.2126498 10.962387 6.8945312 11.470703 C 5.2355312 14.103703 6.1102187 15.516063 6.8242188 16.164062 C 7.6412188 16.900063 7.8989375 17.130859 13.960938 17.130859 C 15.798937 17.130859 18.168047 17.108219 21.248047 17.074219 C 22.302047 17.074219 23.279328 15.913187 23.736328 14.117188 C 24.463328 11.262188 23.724812 7.0677188 19.257812 4.6367188 C 18.893812 4.4377187 18.438234 4.5745 18.240234 4.9375 C 18.041234 5.3015 18.177016 5.755125 18.541016 5.953125 C 22.632741 8.1790996 22.588985 11.712924 22.416016 13.017578 L 11.498047 13.017578 C 12.376047 11.490578 15.751969 6.94475 16.917969 5.46875 C 17.196969 5.10275 17.274906 4.6702031 17.128906 4.2832031 C 17.034906 4.0332031 16.762859 3.5924531 16.005859 3.4394531 C 14.476359 3.1202031 12.996375 2.9669531 11.59375 2.9726562 z M 13.677734 4.5917969 C 14.27056 4.6567865 14.871385 4.7412169 15.486328 4.8632812 C 14.219328 6.5002812 11.021203 10.803891 10.158203 12.337891 C 9.8932031 12.813891 9.89225 13.434766 10.15625 13.884766 C 10.39225 14.286766 10.807969 14.517578 11.292969 14.517578 L 22.005859 14.517578 C 21.716562 15.177191 21.381342 15.550701 21.240234 15.574219 C 8.9962344 15.711219 8.4391094 15.600672 7.7871094 15.013672 C 7.0391094 14.333672 7.7010625 13.003531 8.1640625 12.269531 C 8.5193982 11.701185 12.313958 6.3431411 13.677734 4.5917969 z"/></svg>